<?xml version="1.0" encoding="utf-8"?>
<!-- Generator: Adobe Illustrator 24.0.1, SVG Export Plug-In . SVG Version: 6.00 Build 0)  -->
<svg version="1.1" id="Capa_1" xmlns="http://www.w3.org/2000/svg" xmlns:xlink="http://www.w3.org/1999/xlink" x="0px" y="0px"
	 viewBox="0 0 48 48" style="enable-background:new 0 0 48 48;" xml:space="preserve">
<style type="text/css">
	.st0{fill:#CA8A04;}
</style>
<path class="st0" d="M8,42v-3h32v3H8z M15.6,36c-2.1,0-3.9-0.7-5.4-2.2C8.7,32.4,8,30.6,8,28.5V6h33c0.8,0,1.5,0.3,2.1,0.9
	S44,8.2,44,9v8c0,0.8-0.3,1.5-0.9,2.1S41.8,20,41,20h-4.8v8.5c0,2.1-0.7,3.9-2.2,5.3c-1.5,1.4-3.2,2.2-5.4,2.2H15.6z M15.6,33h13.1
	c1.2,0,2.3-0.5,3.2-1.4c0.9-0.9,1.4-2,1.4-3.1V9H11v19.5c0,1.2,0.5,2.2,1.4,3.1C13.3,32.5,14.4,33,15.6,33z M36.2,17H41l0,0l0,0V9
	l0,0l0,0h-4.8V17z M22.1,21L22.1,21L22.1,21L22.1,21L22.1,21z"/>
</svg>
